# xmcd
#
# Track frame offsets:
#	150
#	12987
#	32992
#	49882
#	63225
#	75452
#	89572
#	104837
#	121800
#	133507
#	149772
#	164557
#	183120
#
# Disc length: 2620 seconds
#
# Revision: 0
# Processed by: cddbd v1.5.1PL0 Copyright (c) Steve Scherf et al.
# Submitted via: audiograbber 1.83.01
#
DISCID=b80a3a0d
DTITLE=Tom Russell - Road To Bayamon
DYEAR=1989
DGENRE=Country
TTITLE0=Home Before Dark
TTITLE1=U.S. Steel
TTITLE2=Downtown Train
TTITLE3=Love Makes A Fool Of The Wise
TTITLE4=The Definition Of A Fool
TTITLE5=As The Crow Flies
TTITLE6=The Road To Bayamon
TTITLE7=Alkali
TTITLE8=Wise Blood
TTITLE9=Joshua Tree
TTITLE10=Mezcal
TTITLE11=William Faulkner In Hollywood
TTITLE12=Fire
EXTD=
EXTT0=
EXTT1=
EXTT2=
EXTT3=
EXTT4=
EXTT5=
EXTT6=
EXTT7=
EXTT8=
EXTT9=
EXTT10=
EXTT11=
EXTT12=
PLAYORDER=
